<mxfile host="app.diagrams.net" modified="2023-11-06T04:02:15.165Z" agent="Mozilla/5.0 (Windows NT 10.0; Win64; x64) AppleWebKit/537.36 (KHTML, like Gecko) Chrome/118.0.0.0 Safari/537.36" etag="DRn14kQ91DA0Cb1UWBQP" version="22.0.8" type="github">
  <diagram name="Page-1" id="CClTeOzFcM-MpxlsosYA">
    <mxGraphModel dx="1221" dy="623" grid="1" gridSize="10" guides="1" tooltips="1" connect="1" arrows="1" fold="1" page="1" pageScale="1" pageWidth="850" pageHeight="1100" math="0" shadow="0">
      <root>
        <mxCell id="0" />
        <mxCell id="1" parent="0" />
        <mxCell id="GykgwWgZM8A0xQCMrxdU-1" value="" style="shape=umlLifeline;perimeter=lifelinePerimeter;whiteSpace=wrap;html=1;container=1;dropTarget=0;collapsible=0;recursiveResize=0;outlineConnect=0;portConstraint=eastwest;newEdgeStyle={&quot;curved&quot;:0,&quot;rounded&quot;:0};participant=umlActor;" vertex="1" parent="1">
          <mxGeometry x="60" y="60" width="20" height="830" as="geometry" />
        </mxCell>
        <mxCell id="GykgwWgZM8A0xQCMrxdU-2" value="up-identity" style="shape=umlLifeline;perimeter=lifelinePerimeter;whiteSpace=wrap;html=1;container=1;dropTarget=0;collapsible=0;recursiveResize=0;outlineConnect=0;portConstraint=eastwest;newEdgeStyle={&quot;curved&quot;:0,&quot;rounded&quot;:0};" vertex="1" parent="1">
          <mxGeometry x="270" y="60" width="100" height="750" as="geometry" />
        </mxCell>
        <mxCell id="GykgwWgZM8A0xQCMrxdU-7" value="" style="html=1;points=[[0,0,0,0,5],[0,1,0,0,-5],[1,0,0,0,5],[1,1,0,0,-5]];perimeter=orthogonalPerimeter;outlineConnect=0;targetShapes=umlLifeline;portConstraint=eastwest;newEdgeStyle={&quot;curved&quot;:0,&quot;rounded&quot;:0};" vertex="1" parent="GykgwWgZM8A0xQCMrxdU-2">
          <mxGeometry x="45" y="250" width="10" height="80" as="geometry" />
        </mxCell>
        <mxCell id="GykgwWgZM8A0xQCMrxdU-11" value="" style="html=1;points=[[0,0,0,0,5],[0,1,0,0,-5],[1,0,0,0,5],[1,1,0,0,-5]];perimeter=orthogonalPerimeter;outlineConnect=0;targetShapes=umlLifeline;portConstraint=eastwest;newEdgeStyle={&quot;curved&quot;:0,&quot;rounded&quot;:0};" vertex="1" parent="GykgwWgZM8A0xQCMrxdU-2">
          <mxGeometry x="45" y="80" width="10" height="120" as="geometry" />
        </mxCell>
        <mxCell id="GykgwWgZM8A0xQCMrxdU-25" value="" style="html=1;points=[[0,0,0,0,5],[0,1,0,0,-5],[1,0,0,0,5],[1,1,0,0,-5]];perimeter=orthogonalPerimeter;outlineConnect=0;targetShapes=umlLifeline;portConstraint=eastwest;newEdgeStyle={&quot;curved&quot;:0,&quot;rounded&quot;:0};" vertex="1" parent="GykgwWgZM8A0xQCMrxdU-2">
          <mxGeometry x="45" y="430" width="10" height="80" as="geometry" />
        </mxCell>
        <mxCell id="GykgwWgZM8A0xQCMrxdU-3" value="isprint" style="shape=umlLifeline;perimeter=lifelinePerimeter;whiteSpace=wrap;html=1;container=1;dropTarget=0;collapsible=0;recursiveResize=0;outlineConnect=0;portConstraint=eastwest;newEdgeStyle={&quot;curved&quot;:0,&quot;rounded&quot;:0};" vertex="1" parent="1">
          <mxGeometry x="440" y="60" width="100" height="750" as="geometry" />
        </mxCell>
        <mxCell id="GykgwWgZM8A0xQCMrxdU-4" value="entity" style="shape=umlLifeline;perimeter=lifelinePerimeter;whiteSpace=wrap;html=1;container=1;dropTarget=0;collapsible=0;recursiveResize=0;outlineConnect=0;portConstraint=eastwest;newEdgeStyle={&quot;curved&quot;:0,&quot;rounded&quot;:0};" vertex="1" parent="1">
          <mxGeometry x="590" y="60" width="100" height="750" as="geometry" />
        </mxCell>
        <mxCell id="GykgwWgZM8A0xQCMrxdU-9" value="" style="html=1;points=[[0,0,0,0,5],[0,1,0,0,-5],[1,0,0,0,5],[1,1,0,0,-5]];perimeter=orthogonalPerimeter;outlineConnect=0;targetShapes=umlLifeline;portConstraint=eastwest;newEdgeStyle={&quot;curved&quot;:0,&quot;rounded&quot;:0};" vertex="1" parent="GykgwWgZM8A0xQCMrxdU-4">
          <mxGeometry x="45" y="130" width="10" height="60" as="geometry" />
        </mxCell>
        <mxCell id="GykgwWgZM8A0xQCMrxdU-5" value="Redis" style="shape=umlLifeline;perimeter=lifelinePerimeter;whiteSpace=wrap;html=1;container=1;dropTarget=0;collapsible=0;recursiveResize=0;outlineConnect=0;portConstraint=eastwest;newEdgeStyle={&quot;curved&quot;:0,&quot;rounded&quot;:0};" vertex="1" parent="1">
          <mxGeometry x="740" y="60" width="100" height="750" as="geometry" />
        </mxCell>
        <mxCell id="GykgwWgZM8A0xQCMrxdU-15" value="" style="html=1;points=[[0,0,0,0,5],[0,1,0,0,-5],[1,0,0,0,5],[1,1,0,0,-5]];perimeter=orthogonalPerimeter;outlineConnect=0;targetShapes=umlLifeline;portConstraint=eastwest;newEdgeStyle={&quot;curved&quot;:0,&quot;rounded&quot;:0};" vertex="1" parent="GykgwWgZM8A0xQCMrxdU-5">
          <mxGeometry x="45" y="80" width="10" height="80" as="geometry" />
        </mxCell>
        <mxCell id="GykgwWgZM8A0xQCMrxdU-6" value="customer review&amp;nbsp;&lt;br&gt;and submit details&lt;br&gt;" style="html=1;verticalAlign=bottom;endArrow=block;curved=0;rounded=0;" edge="1" parent="1" target="GykgwWgZM8A0xQCMrxdU-22">
          <mxGeometry x="-1" y="-10" width="80" relative="1" as="geometry">
            <mxPoint x="70" y="330" as="sourcePoint" />
            <mxPoint x="150" y="330" as="targetPoint" />
            <mxPoint x="-10" y="-10" as="offset" />
          </mxGeometry>
        </mxCell>
        <mxCell id="GykgwWgZM8A0xQCMrxdU-12" value="Get customer details using authcode&lt;br&gt;singpass/login/register/getdetails" style="html=1;verticalAlign=bottom;endArrow=block;curved=0;rounded=0;" edge="1" parent="1" target="GykgwWgZM8A0xQCMrxdU-11">
          <mxGeometry x="0.0041" width="80" relative="1" as="geometry">
            <mxPoint x="70" y="150" as="sourcePoint" />
            <mxPoint x="305" y="150" as="targetPoint" />
            <mxPoint as="offset" />
          </mxGeometry>
        </mxCell>
        <mxCell id="GykgwWgZM8A0xQCMrxdU-14" value="Get NRIC using authcode" style="html=1;verticalAlign=bottom;endArrow=block;curved=0;rounded=0;" edge="1" parent="1">
          <mxGeometry x="0.0041" width="80" relative="1" as="geometry">
            <mxPoint x="325" y="150" as="sourcePoint" />
            <mxPoint x="789.5" y="150" as="targetPoint" />
            <mxPoint as="offset" />
          </mxGeometry>
        </mxCell>
        <mxCell id="GykgwWgZM8A0xQCMrxdU-16" value="return" style="html=1;verticalAlign=bottom;endArrow=open;dashed=1;endSize=8;curved=0;rounded=0;" edge="1" parent="1">
          <mxGeometry relative="1" as="geometry">
            <mxPoint x="785" y="170" as="sourcePoint" />
            <mxPoint x="320" y="170" as="targetPoint" />
          </mxGeometry>
        </mxCell>
        <mxCell id="GykgwWgZM8A0xQCMrxdU-18" value="Get entity details using NRIC" style="html=1;verticalAlign=bottom;endArrow=block;curved=0;rounded=0;" edge="1" parent="1" source="GykgwWgZM8A0xQCMrxdU-11" target="GykgwWgZM8A0xQCMrxdU-4">
          <mxGeometry x="0.0041" width="80" relative="1" as="geometry">
            <mxPoint x="340" y="210" as="sourcePoint" />
            <mxPoint x="784.5" y="210" as="targetPoint" />
            <mxPoint as="offset" />
          </mxGeometry>
        </mxCell>
        <mxCell id="GykgwWgZM8A0xQCMrxdU-19" value="return" style="html=1;verticalAlign=bottom;endArrow=open;dashed=1;endSize=8;curved=0;rounded=0;" edge="1" parent="1" source="GykgwWgZM8A0xQCMrxdU-9">
          <mxGeometry relative="1" as="geometry">
            <mxPoint x="600" y="230" as="sourcePoint" />
            <mxPoint x="320" y="230" as="targetPoint" />
          </mxGeometry>
        </mxCell>
        <mxCell id="GykgwWgZM8A0xQCMrxdU-20" value="Prepopulate email and mobile&lt;br&gt;in singpass login page modal" style="html=1;verticalAlign=bottom;endArrow=open;dashed=1;endSize=8;curved=0;rounded=0;" edge="1" parent="1" target="GykgwWgZM8A0xQCMrxdU-1">
          <mxGeometry relative="1" as="geometry">
            <mxPoint x="320" y="230" as="sourcePoint" />
            <mxPoint x="230" y="230" as="targetPoint" />
          </mxGeometry>
        </mxCell>
        <mxCell id="GykgwWgZM8A0xQCMrxdU-23" style="rounded=0;orthogonalLoop=1;jettySize=auto;html=1;exitX=1;exitY=0.5;exitDx=0;exitDy=0;" edge="1" parent="1" source="GykgwWgZM8A0xQCMrxdU-22" target="GykgwWgZM8A0xQCMrxdU-7">
          <mxGeometry relative="1" as="geometry" />
        </mxCell>
        <mxCell id="GykgwWgZM8A0xQCMrxdU-31" value="login/validateOTP" style="edgeLabel;html=1;align=center;verticalAlign=middle;resizable=0;points=[];" vertex="1" connectable="0" parent="GykgwWgZM8A0xQCMrxdU-23">
          <mxGeometry x="-0.056" y="-1" relative="1" as="geometry">
            <mxPoint y="-11" as="offset" />
          </mxGeometry>
        </mxCell>
        <mxCell id="GykgwWgZM8A0xQCMrxdU-26" style="edgeStyle=orthogonalEdgeStyle;rounded=0;orthogonalLoop=1;jettySize=auto;html=1;exitX=0.5;exitY=1;exitDx=0;exitDy=0;" edge="1" parent="1" source="GykgwWgZM8A0xQCMrxdU-22" target="GykgwWgZM8A0xQCMrxdU-25">
          <mxGeometry relative="1" as="geometry">
            <Array as="points">
              <mxPoint x="150" y="500" />
            </Array>
          </mxGeometry>
        </mxCell>
        <mxCell id="GykgwWgZM8A0xQCMrxdU-27" value="login/register/generateotp" style="edgeLabel;html=1;align=center;verticalAlign=middle;resizable=0;points=[];" vertex="1" connectable="0" parent="GykgwWgZM8A0xQCMrxdU-26">
          <mxGeometry x="0.4237" y="-1" relative="1" as="geometry">
            <mxPoint y="-11" as="offset" />
          </mxGeometry>
        </mxCell>
        <mxCell id="GykgwWgZM8A0xQCMrxdU-22" value="&lt;font style=&quot;font-size: 10px;&quot;&gt;changed &lt;br&gt;email or &lt;br&gt;mobile&lt;/font&gt;" style="rhombus;whiteSpace=wrap;html=1;" vertex="1" parent="1">
          <mxGeometry x="110" y="290" width="80" height="80" as="geometry" />
        </mxCell>
      </root>
    </mxGraphModel>
  </diagram>
</mxfile>
